<svg aria-hidden="true" style="position: absolute; width: 0; height: 0; overflow: hidden;" version="1.1" xmlns="http://www.w3.org/2000/svg" xmlns:xlink="http://www.w3.org/1999/xlink">
<defs>
<symbol id="icon-NICE-VIEW" viewBox="0 0 41 32">
<path d="M12.278 0.375v12.012h-1.408l-6.545-9.431h-0.117v9.431h-1.455v-12.012h1.408l6.569 9.455h0.117v-9.455h1.431z"></path>
<path d="M16.643 0.375v12.012h-1.455v-12.012h1.455z"></path>
<path d="M29.225 4.129h-1.455c-0.086-0.418-0.237-0.786-0.452-1.103-0.211-0.317-0.469-0.583-0.774-0.798-0.301-0.219-0.635-0.383-1.003-0.493s-0.751-0.164-1.15-0.164c-0.727 0-1.386 0.184-1.977 0.551-0.587 0.368-1.054 0.909-1.402 1.625-0.344 0.716-0.516 1.593-0.516 2.633s0.172 1.918 0.516 2.633c0.348 0.716 0.815 1.257 1.402 1.625 0.59 0.367 1.249 0.551 1.977 0.551 0.399 0 0.782-0.055 1.15-0.164s0.702-0.272 1.003-0.487c0.305-0.219 0.563-0.487 0.774-0.804 0.215-0.321 0.366-0.688 0.452-1.103h1.455c-0.11 0.614-0.309 1.163-0.598 1.648s-0.649 0.897-1.079 1.238c-0.43 0.336-0.913 0.592-1.449 0.768-0.532 0.176-1.101 0.264-1.707 0.264-1.025 0-1.935-0.25-2.733-0.751s-1.425-1.212-1.883-2.135-0.686-2.018-0.686-3.284c0-1.267 0.229-2.362 0.686-3.284s1.085-1.634 1.883-2.135c0.798-0.5 1.709-0.751 2.733-0.751 0.606 0 1.175 0.088 1.707 0.264 0.536 0.176 1.019 0.434 1.449 0.774 0.43 0.336 0.79 0.747 1.079 1.232 0.289 0.481 0.489 1.030 0.598 1.648z"></path>
<path d="M31.576 12.387v-12.012h7.249v1.29h-5.795v4.059h5.419v1.29h-5.419v4.082h5.889v1.29h-7.343z"></path>
<path d="M2.052 19.988l3.566 10.111h0.141l3.566-10.111h1.525l-4.41 12.012h-1.501l-4.411-12.012h1.525z"></path>
<path d="M14.175 19.988v12.012h-1.455v-12.012h1.455z"></path>
<path d="M17.092 32v-12.012h7.249v1.29h-5.795v4.059h5.419v1.29h-5.419v4.082h5.889v1.29h-7.343z"></path>
<path d="M29.145 32l-3.285-12.012h1.478l2.51 9.783h0.117l2.557-9.783h1.642l2.557 9.783h0.117l2.51-9.783h1.478l-3.284 12.012h-1.501l-2.651-9.572h-0.094l-2.651 9.572h-1.501z"></path>
</symbol>
<symbol id="icon-Bag" viewBox="0 0 37 32">
<path stroke-linejoin="miter" stroke-linecap="butt" stroke-miterlimit="4" stroke-width="2.4615" d="M11.898 7.795h13.128M11.898 7.795h-6.564c-0.87 0-1.705 0.346-2.321 0.961s-0.961 1.45-0.961 2.321v16.41c0 0.871 0.346 1.705 0.961 2.321s1.45 0.961 2.321 0.961h26.256c0.871 0 1.705-0.346 2.321-0.961s0.961-1.45 0.961-2.321v-16.41c0-0.87-0.346-1.705-0.961-2.321s-1.45-0.961-2.321-0.961h-19.692zM11.898 7.795v-5.579c0-0.261 0.104-0.512 0.288-0.696s0.435-0.288 0.696-0.288h11.159c0.261 0 0.512 0.104 0.696 0.288s0.288 0.435 0.288 0.696v5.579h-13.128z"></path>
</symbol>
<symbol id="icon-Analytic" viewBox="0 0 32 32">
<path stroke-linejoin="round" stroke-linecap="round" stroke-miterlimit="4" stroke-width="2.6667" d="M30.222 30.222h-28.444v-28.444"></path>
<path stroke-linejoin="round" stroke-linecap="round" stroke-miterlimit="4" stroke-width="2.6667" d="M1.778 24l14.222-13.333 5.333 5.333 8-8"></path>
</symbol>
<symbol id="icon-Homes" viewBox="0 0 35 32">
<path stroke-linejoin="round" stroke-linecap="round" stroke-miterlimit="4" stroke-width="2.6667" d="M29.778 17.778v11.378c0 0.283-0.112 0.554-0.312 0.754s-0.471 0.312-0.754 0.312h-22.756c-0.283 0-0.554-0.112-0.754-0.312s-0.312-0.471-0.312-0.754v-11.378M1.333 11.556l16-9.778 16 9.778h-32z"></path>
</symbol>
<symbol id="icon-Achivements" viewBox="0 0 32 32">
<path stroke-linejoin="round" stroke-linecap="round" stroke-miterlimit="4" stroke-width="2.1333" d="M20.978 30.933h-9.956M20.978 30.933v-13.939c0-0.264-0.105-0.517-0.292-0.704s-0.44-0.292-0.704-0.292h-7.964c-0.264 0-0.517 0.105-0.704 0.292s-0.292 0.44-0.292 0.704v13.939M20.978 30.933h8.96c0.264 0 0.517-0.105 0.704-0.292s0.292-0.44 0.292-0.704v-3.816c0-0.264-0.105-0.517-0.292-0.704s-0.44-0.292-0.704-0.292h-7.964c-0.264 0-0.517 0.105-0.704 0.292s-0.292 0.44-0.292 0.704v4.812zM11.022 30.933v-8.131c0-0.264-0.105-0.517-0.292-0.704s-0.44-0.292-0.704-0.292h-7.964c-0.264 0-0.517 0.105-0.704 0.292s-0.292 0.44-0.292 0.704v7.135c0 0.264 0.105 0.517 0.292 0.704s0.44 0.292 0.704 0.292h8.96zM14.019 4.571l1.508-3.198c0.041-0.091 0.107-0.169 0.191-0.224s0.182-0.083 0.282-0.083c0.1 0 0.198 0.029 0.282 0.083s0.15 0.132 0.191 0.224l1.51 3.198 3.372 0.516c0.433 0.066 0.606 0.624 0.292 0.943l-2.439 2.489 0.576 3.515c0.073 0.451-0.378 0.796-0.767 0.582l-3.017-1.659-3.017 1.659c-0.387 0.212-0.84-0.131-0.767-0.582l0.576-3.515-2.439-2.489c-0.315-0.319-0.141-0.876 0.29-0.943l3.375-0.516z"></path>
</symbol>
</defs>
</svg>
