<!-- Generated by IcoMoon.io -->
<svg version="1.1" xmlns="http://www.w3.org/2000/svg" width="32" height="32" viewBox="0 0 32 32">
<path fill="none" stroke-linejoin="round" stroke-linecap="round" stroke-miterlimit="4" stroke-width="2.1333" stroke="#000" d="M20.978 30.933h-9.956M20.978 30.933v-13.939c0-0.264-0.105-0.517-0.292-0.704s-0.44-0.292-0.704-0.292h-7.964c-0.264 0-0.517 0.105-0.704 0.292s-0.292 0.44-0.292 0.704v13.939M20.978 30.933h8.96c0.264 0 0.517-0.105 0.704-0.292s0.292-0.44 0.292-0.704v-3.816c0-0.264-0.105-0.517-0.292-0.704s-0.44-0.292-0.704-0.292h-7.964c-0.264 0-0.517 0.105-0.704 0.292s-0.292 0.44-0.292 0.704v4.812zM11.022 30.933v-8.131c0-0.264-0.105-0.517-0.292-0.704s-0.44-0.292-0.704-0.292h-7.964c-0.264 0-0.517 0.105-0.704 0.292s-0.292 0.44-0.292 0.704v7.135c0 0.264 0.105 0.517 0.292 0.704s0.44 0.292 0.704 0.292h8.96zM14.019 4.571l1.508-3.198c0.041-0.091 0.107-0.169 0.191-0.224s0.182-0.083 0.282-0.083c0.1 0 0.198 0.029 0.282 0.083s0.15 0.132 0.191 0.224l1.51 3.198 3.372 0.516c0.433 0.066 0.606 0.624 0.292 0.943l-2.439 2.489 0.576 3.515c0.073 0.451-0.378 0.796-0.767 0.582l-3.017-1.659-3.017 1.659c-0.387 0.212-0.84-0.131-0.767-0.582l0.576-3.515-2.439-2.489c-0.315-0.319-0.141-0.876 0.29-0.943l3.375-0.516z"></path>
</svg>
