<!-- Generated by IcoMoon.io -->
<svg version="1.1" xmlns="http://www.w3.org/2000/svg" width="37" height="32" viewBox="0 0 37 32">
<path fill="none" stroke-linejoin="miter" stroke-linecap="butt" stroke-miterlimit="4" stroke-width="2.4615" stroke="#000" d="M11.898 7.795h13.128M11.898 7.795h-6.564c-0.87 0-1.705 0.346-2.321 0.961s-0.961 1.45-0.961 2.321v16.41c0 0.871 0.346 1.705 0.961 2.321s1.45 0.961 2.321 0.961h26.256c0.871 0 1.705-0.346 2.321-0.961s0.961-1.45 0.961-2.321v-16.41c0-0.87-0.346-1.705-0.961-2.321s-1.45-0.961-2.321-0.961h-19.692zM11.898 7.795v-5.579c0-0.261 0.104-0.512 0.288-0.696s0.435-0.288 0.696-0.288h11.159c0.261 0 0.512 0.104 0.696 0.288s0.288 0.435 0.288 0.696v5.579h-13.128z"></path>
</svg>
